<mxfile host="app.diagrams.net" agent="Mozilla/5.0 (Windows NT 10.0; Win64; x64) AppleWebKit/537.36 (KHTML, like Gecko) Chrome/136.0.0.0 Safari/537.36 Edg/136.0.0.0" version="27.0.3">
  <diagram name="‫עמוד-1‬" id="o3iPobvzzQp2ZYKVRX2s">
    <mxGraphModel grid="0" page="0" gridSize="10" guides="1" tooltips="1" connect="1" arrows="1" fold="1" pageScale="1" pageWidth="1169" pageHeight="827" background="light-dark(#FFFFFF,#897E9A)" math="0" shadow="1">
      <root>
        <mxCell id="0" />
        <mxCell id="1" parent="0" />
        <mxCell id="KTxpn-sgwR3r82vvd0zw-24" value="&lt;div&gt;&lt;font style=&quot;background-color: light-dark(#ffffff, var(--ge-dark-color, #121212)); font-size: 11px;&quot;&gt;&lt;br&gt;&lt;/font&gt;&lt;/div&gt;&lt;div&gt;&lt;font style=&quot;color: light-dark(rgb(0, 0, 0), rgb(255, 255, 255)); background-color: light-dark(#ffffff, var(--ge-dark-color, #121212)); font-size: 11px;&quot;&gt;interface&lt;/font&gt;&lt;/div&gt;&lt;font style=&quot;color: light-dark(rgb(0, 0, 0), rgb(255, 255, 255)); background-color: light-dark(#ffffff, var(--ge-dark-color, #121212)); font-size: 11px;&quot;&gt;IBankBranch&lt;/font&gt;&lt;div&gt;&lt;br&gt;&lt;/div&gt;" style="swimlane;fontStyle=0;childLayout=stackLayout;horizontal=1;startSize=31;horizontalStack=0;resizeParent=1;resizeParentMax=0;resizeLast=0;collapsible=1;marginBottom=0;whiteSpace=wrap;html=1;fontColor=light-dark(#000000,#08062D);labelBackgroundColor=none;strokeColor=light-dark(#000000,#000000);" vertex="1" parent="1">
          <mxGeometry x="-73" y="-257" width="140" height="91" as="geometry">
            <mxRectangle x="-77" y="-208" width="54" height="30" as="alternateBounds" />
          </mxGeometry>
        </mxCell>
        <mxCell id="KTxpn-sgwR3r82vvd0zw-25" value="&lt;font style=&quot;font-size: 8px; color: light-dark(rgb(0, 0, 0), rgb(0, 0, 0));&quot;&gt;+ AddAccount(BankAccount account)&lt;/font&gt;" style="text;strokeColor=none;fillColor=none;align=left;verticalAlign=middle;spacingLeft=4;spacingRight=4;overflow=hidden;points=[[0,0.5],[1,0.5]];portConstraint=eastwest;rotatable=0;whiteSpace=wrap;html=1;fontColor=light-dark(#000000,#3333FF);" vertex="1" parent="KTxpn-sgwR3r82vvd0zw-24">
          <mxGeometry y="31" width="140" height="30" as="geometry" />
        </mxCell>
        <mxCell id="KTxpn-sgwR3r82vvd0zw-26" value="&lt;font style=&quot;font-size: 9px; color: light-dark(rgb(0, 0, 0), rgb(0, 0, 0));&quot;&gt;+ PrintAccounts()&lt;/font&gt;" style="text;strokeColor=none;fillColor=none;align=left;verticalAlign=middle;spacingLeft=4;spacingRight=4;overflow=hidden;points=[[0,0.5],[1,0.5]];portConstraint=eastwest;rotatable=0;whiteSpace=wrap;html=1;" vertex="1" parent="KTxpn-sgwR3r82vvd0zw-24">
          <mxGeometry y="61" width="140" height="30" as="geometry" />
        </mxCell>
        <mxCell id="KTxpn-sgwR3r82vvd0zw-28" value="BankBranch" style="swimlane;whiteSpace=wrap;html=1;strokeColor=light-dark(#000000,#000000);" vertex="1" parent="1">
          <mxGeometry x="-250" y="-142" width="135" height="229" as="geometry" />
        </mxCell>
        <mxCell id="KTxpn-sgwR3r82vvd0zw-29" value="&lt;font style=&quot;font-size: 9px;&quot;&gt;-&amp;nbsp;branchNumber : int&lt;/font&gt;" style="text;html=1;align=left;verticalAlign=middle;whiteSpace=wrap;rounded=0;fontColor=light-dark(#000000,#000000);" vertex="1" parent="KTxpn-sgwR3r82vvd0zw-28">
          <mxGeometry x="8.5" y="30" width="118" height="25" as="geometry" />
        </mxCell>
        <mxCell id="KTxpn-sgwR3r82vvd0zw-30" value="&lt;font style=&quot;font-size: 8px;&quot;&gt;-&amp;nbsp;address : string&lt;/font&gt;" style="text;html=1;align=left;verticalAlign=middle;whiteSpace=wrap;rounded=0;fontColor=light-dark(#000000,#000000);" vertex="1" parent="KTxpn-sgwR3r82vvd0zw-28">
          <mxGeometry x="8.5" y="52" width="118" height="25" as="geometry" />
        </mxCell>
        <mxCell id="KTxpn-sgwR3r82vvd0zw-32" value="&lt;font style=&quot;font-size: 8px;&quot;&gt;- CheckingAccount : [] int&amp;nbsp;&lt;/font&gt;" style="text;html=1;align=left;verticalAlign=middle;whiteSpace=wrap;rounded=0;fontColor=light-dark(#000000,#000000);" vertex="1" parent="KTxpn-sgwR3r82vvd0zw-28">
          <mxGeometry x="8.5" y="77" width="118" height="25" as="geometry" />
        </mxCell>
        <mxCell id="KTxpn-sgwR3r82vvd0zw-37" value="&lt;font style=&quot;font-size: 8px;&quot;&gt;&amp;nbsp;- accountCount : int&lt;/font&gt;" style="text;html=1;align=left;verticalAlign=middle;whiteSpace=wrap;rounded=0;fontColor=light-dark(#000000,#000000);" vertex="1" parent="KTxpn-sgwR3r82vvd0zw-28">
          <mxGeometry x="8.5" y="98" width="118" height="25" as="geometry" />
        </mxCell>
        <mxCell id="KTxpn-sgwR3r82vvd0zw-44" value="" style="endArrow=none;html=1;rounded=0;exitX=0;exitY=0.75;exitDx=0;exitDy=0;entryX=1;entryY=0.75;entryDx=0;entryDy=0;strokeColor=light-dark(#000000,#000000);" edge="1" parent="KTxpn-sgwR3r82vvd0zw-28">
          <mxGeometry width="50" height="50" relative="1" as="geometry">
            <mxPoint y="125" as="sourcePoint" />
            <mxPoint x="135" y="125" as="targetPoint" />
            <Array as="points">
              <mxPoint x="64" y="125.25" />
            </Array>
          </mxGeometry>
        </mxCell>
        <mxCell id="KTxpn-sgwR3r82vvd0zw-45" value="&lt;font style=&quot;font-size: 8px;&quot;&gt;+&amp;nbsp;&lt;/font&gt;&lt;span style=&quot;font-size: 8px;&quot;&gt;BankBranch(branchNumber:&lt;/span&gt;&lt;span style=&quot;font-size: 8px;&quot;&gt;int&amp;nbsp;&lt;/span&gt;&lt;div&gt;&lt;span style=&quot;font-size: 8px;&quot;&gt;,&amp;nbsp;&lt;/span&gt;&lt;span style=&quot;font-size: 8px; background-color: transparent;&quot;&gt;address:&lt;/span&gt;&lt;span style=&quot;font-size: 8px; background-color: transparent;&quot;&gt;string )&lt;/span&gt;&lt;/div&gt;" style="text;html=1;align=left;verticalAlign=middle;whiteSpace=wrap;rounded=0;fontColor=light-dark(#000000,#000000);" vertex="1" parent="KTxpn-sgwR3r82vvd0zw-28">
          <mxGeometry x="8.5" y="127" width="118" height="25" as="geometry" />
        </mxCell>
        <mxCell id="KTxpn-sgwR3r82vvd0zw-46" value="&lt;font style=&quot;font-size: 8px;&quot;&gt;&amp;nbsp;+&amp;nbsp;PrintAccounts()&lt;/font&gt;" style="text;html=1;align=left;verticalAlign=middle;whiteSpace=wrap;rounded=0;fontColor=light-dark(#000000,#000000);" vertex="1" parent="KTxpn-sgwR3r82vvd0zw-28">
          <mxGeometry x="8.5" y="156" width="118" height="25" as="geometry" />
        </mxCell>
        <mxCell id="KTxpn-sgwR3r82vvd0zw-47" value="&lt;span style=&quot;font-size: 8px;&quot;&gt;+AddAccountAddAccount()&lt;/span&gt;" style="text;html=1;align=left;verticalAlign=middle;whiteSpace=wrap;rounded=0;fontColor=light-dark(#000000,#000000);" vertex="1" parent="KTxpn-sgwR3r82vvd0zw-28">
          <mxGeometry x="8.5" y="181" width="118" height="25" as="geometry" />
        </mxCell>
        <mxCell id="KTxpn-sgwR3r82vvd0zw-43" value="" style="endArrow=blockThin;rounded=0;exitX=0.993;exitY=0.111;exitDx=0;exitDy=0;exitPerimeter=0;fontColor=none;noLabel=1;strokeColor=light-dark(#000000,#000000);endFill=0;entryX=0.5;entryY=1;entryDx=0;entryDy=0;dashed=1;startFill=0;" edge="1" parent="1" source="KTxpn-sgwR3r82vvd0zw-28" target="KTxpn-sgwR3r82vvd0zw-24">
          <mxGeometry width="50" height="50" relative="1" as="geometry">
            <mxPoint x="-37" y="-98" as="sourcePoint" />
            <mxPoint x="-2" y="-148" as="targetPoint" />
            <Array as="points" />
          </mxGeometry>
        </mxCell>
        <mxCell id="KTxpn-sgwR3r82vvd0zw-48" value="CheckingAccount" style="swimlane;whiteSpace=wrap;html=1;strokeColor=light-dark(#000000,#000000);" vertex="1" parent="1">
          <mxGeometry x="-284" y="217" width="293" height="229" as="geometry">
            <mxRectangle x="-148" y="143" width="128" height="26" as="alternateBounds" />
          </mxGeometry>
        </mxCell>
        <mxCell id="KTxpn-sgwR3r82vvd0zw-49" value="&lt;font style=&quot;font-size: 9px;&quot;&gt;-&amp;nbsp;private overdraftLimit :&amp;nbsp;&lt;/font&gt;&lt;span style=&quot;font-size: 9px;&quot;&gt;double&amp;nbsp;&lt;/span&gt;" style="text;html=1;align=left;verticalAlign=middle;whiteSpace=wrap;rounded=0;fontColor=light-dark(#000000,#000000);" vertex="1" parent="KTxpn-sgwR3r82vvd0zw-48">
          <mxGeometry x="8.5" y="30" width="118" height="25" as="geometry" />
        </mxCell>
        <mxCell id="KTxpn-sgwR3r82vvd0zw-53" value="" style="endArrow=none;html=1;rounded=0;exitX=0;exitY=0.75;exitDx=0;exitDy=0;strokeColor=light-dark(#000000,#000000);" edge="1" parent="KTxpn-sgwR3r82vvd0zw-48">
          <mxGeometry width="50" height="50" relative="1" as="geometry">
            <mxPoint x="-3" y="71" as="sourcePoint" />
            <mxPoint x="293" y="71" as="targetPoint" />
            <Array as="points">
              <mxPoint x="61" y="71.25" />
            </Array>
          </mxGeometry>
        </mxCell>
        <mxCell id="KTxpn-sgwR3r82vvd0zw-54" value="&lt;span style=&quot;font-size: 8px;&quot;&gt;+&amp;nbsp;CheckingAccount(accountNumber : string ,&amp;nbsp;&lt;/span&gt;&lt;span style=&quot;background-color: transparent; font-size: 8px;&quot;&gt;Customer customerOwner,&amp;nbsp;&lt;/span&gt;&lt;span style=&quot;font-size: 8px;&quot;&gt;initialBalance:&amp;nbsp;&lt;/span&gt;&lt;span style=&quot;background-color: transparent; font-size: 8px;&quot;&gt;double , overdraftLimit : )&lt;/span&gt;&lt;div&gt;&lt;span style=&quot;font-size: 8px;&quot;&gt;&amp;nbsp; &amp;nbsp;: base(accountNumber, customerOwner, initialBalance)&lt;/span&gt;&lt;/div&gt;" style="text;html=1;align=left;verticalAlign=middle;whiteSpace=wrap;rounded=0;fontColor=light-dark(#000000,#000000);" vertex="1" parent="KTxpn-sgwR3r82vvd0zw-48">
          <mxGeometry x="8.5" y="81" width="281.5" height="52" as="geometry" />
        </mxCell>
        <mxCell id="KTxpn-sgwR3r82vvd0zw-61" value="&lt;span style=&quot;font-size: 8px;&quot;&gt;+ &amp;lt;override&amp;gt;&amp;nbsp;Withdraw (amount : double)&lt;/span&gt;&lt;div&gt;&lt;span style=&quot;font-size: 8px;&quot;&gt;&lt;br&gt;&lt;/span&gt;&lt;/div&gt;" style="text;html=1;align=left;verticalAlign=middle;whiteSpace=wrap;rounded=0;fontColor=light-dark(#000000,#000000);" vertex="1" parent="KTxpn-sgwR3r82vvd0zw-48">
          <mxGeometry x="5.75" y="139" width="167.25" height="27" as="geometry" />
        </mxCell>
        <mxCell id="KTxpn-sgwR3r82vvd0zw-62" value="&lt;span style=&quot;font-size: 8px;&quot;&gt;+ &amp;lt;override&amp;gt; PrintBalance()&lt;/span&gt;&lt;div&gt;&lt;span style=&quot;font-size: 8px;&quot;&gt;&lt;br&gt;&lt;/span&gt;&lt;/div&gt;" style="text;html=1;align=left;verticalAlign=middle;whiteSpace=wrap;rounded=0;fontColor=light-dark(#000000,#000000);" vertex="1" parent="KTxpn-sgwR3r82vvd0zw-48">
          <mxGeometry x="8.5" y="177" width="167.25" height="27" as="geometry" />
        </mxCell>
        <mxCell id="KTxpn-sgwR3r82vvd0zw-57" value="" style="edgeStyle=none;orthogonalLoop=1;jettySize=auto;html=1;rounded=0;exitX=0.573;exitY=-0.009;exitDx=0;exitDy=0;exitPerimeter=0;entryX=0.5;entryY=1;entryDx=0;entryDy=0;strokeColor=light-dark(#000000,#000000);endArrow=diamond;endFill=1;" edge="1" parent="1" source="KTxpn-sgwR3r82vvd0zw-48" target="KTxpn-sgwR3r82vvd0zw-28">
          <mxGeometry width="100" relative="1" as="geometry">
            <mxPoint x="71" y="-52" as="sourcePoint" />
            <mxPoint x="171" y="-52" as="targetPoint" />
            <Array as="points">
              <mxPoint x="-119" y="143" />
              <mxPoint x="-173" y="125" />
            </Array>
          </mxGeometry>
        </mxCell>
        <mxCell id="KTxpn-sgwR3r82vvd0zw-63" value="abstract&amp;nbsp;&lt;div&gt;BankAccount&lt;/div&gt;" style="swimlane;whiteSpace=wrap;html=1;strokeColor=light-dark(#000000,#000000);startSize=30;" vertex="1" parent="1">
          <mxGeometry x="111" y="-207" width="293" height="286" as="geometry">
            <mxRectangle x="-148" y="143" width="128" height="26" as="alternateBounds" />
          </mxGeometry>
        </mxCell>
        <mxCell id="KTxpn-sgwR3r82vvd0zw-64" value="- accountNumber; string&amp;nbsp;&lt;br&gt;-balance : double&amp;nbsp;&lt;br&gt;# customerOwner : Customer&amp;nbsp;" style="text;html=1;align=left;verticalAlign=middle;whiteSpace=wrap;rounded=0;fontColor=light-dark(#000000,#000000);" vertex="1" parent="KTxpn-sgwR3r82vvd0zw-63">
          <mxGeometry x="11" y="36" width="259" height="41" as="geometry" />
        </mxCell>
        <mxCell id="KTxpn-sgwR3r82vvd0zw-65" value="" style="endArrow=none;html=1;rounded=0;exitX=0;exitY=0.75;exitDx=0;exitDy=0;strokeColor=light-dark(#000000,#000000);" edge="1" parent="KTxpn-sgwR3r82vvd0zw-63">
          <mxGeometry width="50" height="50" relative="1" as="geometry">
            <mxPoint y="87" as="sourcePoint" />
            <mxPoint x="296" y="87" as="targetPoint" />
            <Array as="points">
              <mxPoint x="64" y="87.25" />
            </Array>
          </mxGeometry>
        </mxCell>
        <mxCell id="KTxpn-sgwR3r82vvd0zw-70" value="" style="edgeStyle=none;rounded=0;orthogonalLoop=1;jettySize=auto;html=1;" edge="1" parent="KTxpn-sgwR3r82vvd0zw-63">
          <mxGeometry relative="1" as="geometry">
            <mxPoint x="92.375" y="259" as="targetPoint" />
          </mxGeometry>
        </mxCell>
        <mxCell id="KTxpn-sgwR3r82vvd0zw-74" value="BankAccount(accountNumber: string&amp;nbsp;, customerOwner: Customer&amp;nbsp;, initialBalance :double&amp;nbsp;)" style="text;html=1;align=left;verticalAlign=middle;whiteSpace=wrap;rounded=0;fontColor=light-dark(#000000,#000000);" vertex="1" parent="KTxpn-sgwR3r82vvd0zw-63">
          <mxGeometry x="11" y="100" width="274" height="41" as="geometry" />
        </mxCell>
        <mxCell id="KTxpn-sgwR3r82vvd0zw-75" value="+&amp;nbsp;Deposit(amount : double)" style="text;html=1;align=left;verticalAlign=middle;whiteSpace=wrap;rounded=0;fontColor=light-dark(#000000,#000000);" vertex="1" parent="KTxpn-sgwR3r82vvd0zw-63">
          <mxGeometry x="11" y="145" width="274" height="41" as="geometry" />
        </mxCell>
        <mxCell id="KTxpn-sgwR3r82vvd0zw-76" value="+Deposit(amount: double ,&amp;nbsp; date :DateTime)" style="text;html=1;align=left;verticalAlign=middle;whiteSpace=wrap;rounded=0;fontColor=light-dark(#000000,#000000);" vertex="1" parent="KTxpn-sgwR3r82vvd0zw-63">
          <mxGeometry x="11" y="175" width="274" height="41" as="geometry" />
        </mxCell>
        <mxCell id="KTxpn-sgwR3r82vvd0zw-78" value="+&amp;lt;virtual&amp;gt; Withdraw(amount:double&amp;nbsp;)" style="text;html=1;align=left;verticalAlign=middle;whiteSpace=wrap;rounded=0;fontColor=light-dark(#000000,#000000);" vertex="1" parent="KTxpn-sgwR3r82vvd0zw-63">
          <mxGeometry x="11" y="210" width="274" height="41" as="geometry" />
        </mxCell>
        <mxCell id="KTxpn-sgwR3r82vvd0zw-79" value="+&amp;lt;virtual&amp;gt; PrintBalance()" style="text;html=1;align=left;verticalAlign=middle;whiteSpace=wrap;rounded=0;fontColor=light-dark(#000000,#000000);" vertex="1" parent="KTxpn-sgwR3r82vvd0zw-63">
          <mxGeometry x="11" y="238" width="274" height="41" as="geometry" />
        </mxCell>
        <mxCell id="KTxpn-sgwR3r82vvd0zw-71" value="" style="edgeStyle=none;orthogonalLoop=1;jettySize=auto;html=1;rounded=0;exitX=0.554;exitY=0.015;exitDx=0;exitDy=0;entryX=0.5;entryY=1;entryDx=0;entryDy=0;strokeColor=light-dark(#000000,#000000);exitPerimeter=0;" edge="1" parent="1" source="KTxpn-sgwR3r82vvd0zw-48" target="KTxpn-sgwR3r82vvd0zw-63">
          <mxGeometry width="100" relative="1" as="geometry">
            <mxPoint x="366" y="236" as="sourcePoint" />
            <mxPoint x="466" y="236" as="targetPoint" />
            <Array as="points" />
          </mxGeometry>
        </mxCell>
        <mxCell id="KTxpn-sgwR3r82vvd0zw-90" style="edgeStyle=none;rounded=0;orthogonalLoop=1;jettySize=auto;html=1;strokeColor=light-dark(#000000,#000000);endArrow=diamond;endFill=1;entryX=0.5;entryY=1;entryDx=0;entryDy=0;" edge="1" parent="1" source="KTxpn-sgwR3r82vvd0zw-80" target="KTxpn-sgwR3r82vvd0zw-63">
          <mxGeometry relative="1" as="geometry">
            <mxPoint x="428" y="139" as="sourcePoint" />
            <mxPoint x="429" y="-42" as="targetPoint" />
            <Array as="points">
              <mxPoint x="332" y="139" />
            </Array>
          </mxGeometry>
        </mxCell>
        <mxCell id="KTxpn-sgwR3r82vvd0zw-80" value="Customer&lt;div&gt;&lt;div&gt;&lt;br&gt;&lt;/div&gt;&lt;/div&gt;" style="swimlane;whiteSpace=wrap;html=1;strokeColor=light-dark(#000000,#000000);startSize=30;" vertex="1" parent="1">
          <mxGeometry x="128" y="238" width="293" height="219" as="geometry">
            <mxRectangle x="-148" y="143" width="128" height="26" as="alternateBounds" />
          </mxGeometry>
        </mxCell>
        <mxCell id="KTxpn-sgwR3r82vvd0zw-81" value="&lt;div&gt;- id:&amp;nbsp;&lt;span style=&quot;background-color: transparent;&quot;&gt;int&lt;/span&gt;&lt;span style=&quot;background-color: transparent;&quot;&gt;&amp;nbsp;&lt;/span&gt;&lt;/div&gt;&lt;div&gt;- name :&lt;span style=&quot;background-color: transparent;&quot;&gt;string&lt;/span&gt;&lt;span style=&quot;background-color: transparent;&quot;&gt;&amp;nbsp;&lt;/span&gt;&lt;/div&gt;&lt;div&gt;- phoneNumber :&amp;nbsp;&lt;span style=&quot;background-color: transparent;&quot;&gt;string&lt;/span&gt;&lt;span style=&quot;background-color: transparent;&quot;&gt;&amp;nbsp;&lt;/span&gt;&lt;/div&gt;" style="text;html=1;align=left;verticalAlign=middle;whiteSpace=wrap;rounded=0;fontColor=light-dark(#000000,#000000);" vertex="1" parent="KTxpn-sgwR3r82vvd0zw-80">
          <mxGeometry x="11" y="36" width="259" height="41" as="geometry" />
        </mxCell>
        <mxCell id="KTxpn-sgwR3r82vvd0zw-82" value="" style="endArrow=none;html=1;rounded=0;exitX=0;exitY=0.75;exitDx=0;exitDy=0;strokeColor=light-dark(#000000,#000000);" edge="1" parent="KTxpn-sgwR3r82vvd0zw-80">
          <mxGeometry width="50" height="50" relative="1" as="geometry">
            <mxPoint y="87" as="sourcePoint" />
            <mxPoint x="296" y="87" as="targetPoint" />
            <Array as="points">
              <mxPoint x="64" y="87.25" />
            </Array>
          </mxGeometry>
        </mxCell>
        <mxCell id="KTxpn-sgwR3r82vvd0zw-83" value="" style="edgeStyle=none;rounded=0;orthogonalLoop=1;jettySize=auto;html=1;" edge="1" parent="KTxpn-sgwR3r82vvd0zw-80">
          <mxGeometry relative="1" as="geometry">
            <mxPoint x="92.375" y="259" as="targetPoint" />
          </mxGeometry>
        </mxCell>
        <mxCell id="KTxpn-sgwR3r82vvd0zw-84" value="+Customer(id: int&amp;nbsp;, name :string&amp;nbsp;, phoneNumber :string&amp;nbsp;)" style="text;html=1;align=left;verticalAlign=middle;whiteSpace=wrap;rounded=0;fontColor=light-dark(#000000,#000000);" vertex="1" parent="KTxpn-sgwR3r82vvd0zw-80">
          <mxGeometry x="11" y="100" width="274" height="41" as="geometry" />
        </mxCell>
        <mxCell id="KTxpn-sgwR3r82vvd0zw-85" value="+PrintDetails()" style="text;html=1;align=left;verticalAlign=middle;whiteSpace=wrap;rounded=0;fontColor=light-dark(#000000,#000000);" vertex="1" parent="KTxpn-sgwR3r82vvd0zw-80">
          <mxGeometry x="11" y="145" width="274" height="41" as="geometry" />
        </mxCell>
      </root>
    </mxGraphModel>
  </diagram>
</mxfile>
